<svg xmlns="http://www.w3.org/2000/svg" viewBox="0 0 37 37" shape-rendering="crispEdges"><path fill="#fff" d="M0 0h37v37H0z"/><g fill="#000"><path d="M4 4h7v1H4z"/><path d="M13 4h1v1H13z"/><path d="M19 4h2v1H19z"/><path d="M22 4h2v1H22z"/><path d="M26 4h7v1H26z"/><path d="M4 5h1v1H4z"/><path d="M10 5h1v1H10z"/><path d="M12 5h1v1H12z"/><path d="M14 5h1v1H14z"/><path d="M16 5h2v1H16z"/><path d="M20 5h1v1H20z"/><path d="M22 5h3v1H22z"/><path d="M26 5h1v1H26z"/><path d="M32 5h1v1H32z"/><path d="M4 6h1v1H4z"/><path d="M6 6h3v1H6z"/><path d="M10 6h1v1H10z"/><path d="M13 6h1v1H13z"/><path d="M15 6h3v1H15z"/><path d="M19 6h6v1H19z"/><path d="M26 6h1v1H26z"/><path d="M28 6h3v1H28z"/><path d="M32 6h1v1H32z"/><path d="M4 7h1v1H4z"/><path d="M6 7h3v1H6z"/><path d="M10 7h1v1H10z"/><path d="M13 7h1v1H13z"/><path d="M16 7h1v1H16z"/><path d="M22 7h1v1H22z"/><path d="M26 7h1v1H26z"/><path d="M28 7h3v1H28z"/><path d="M32 7h1v1H32z"/><path d="M4 8h1v1H4z"/><path d="M6 8h3v1H6z"/><path d="M10 8h1v1H10z"/><path d="M13 8h1v1H13z"/><path d="M17 8h2v1H17z"/><path d="M21 8h2v1H21z"/><path d="M26 8h1v1H26z"/><path d="M28 8h3v1H28z"/><path d="M32 8h1v1H32z"/><path d="M4 9h1v1H4z"/><path d="M10 9h1v1H10z"/><path d="M12 9h3v1H12z"/><path d="M16 9h1v1H16z"/><path d="M18 9h3v1H18z"/><path d="M22 9h2v1H22z"/><path d="M26 9h1v1H26z"/><path d="M32 9h1v1H32z"/><path d="M4 10h7v1H4z"/><path d="M12 10h1v1H12z"/><path d="M14 10h1v1H14z"/><path d="M16 10h1v1H16z"/><path d="M18 10h1v1H18z"/><path d="M20 10h1v1H20z"/><path d="M22 10h1v1H22z"/><path d="M24 10h1v1H24z"/><path d="M26 10h7v1H26z"/><path d="M12 11h3v1H12z"/><path d="M17 11h1v1H17z"/><path d="M20 11h4v1H20z"/><path d="M8 12h4v1H8z"/><path d="M13 12h1v1H13z"/><path d="M15 12h4v1H15z"/><path d="M20 12h1v1H20z"/><path d="M22 12h3v1H22z"/><path d="M26 12h2v1H26z"/><path d="M31 12h1v1H31z"/><path d="M4 13h1v1H4z"/><path d="M7 13h2v1H7z"/><path d="M13 13h5v1H13z"/><path d="M19 13h4v1H19z"/><path d="M25 13h1v1H25z"/><path d="M27 13h6v1H27z"/><path d="M4 14h1v1H4z"/><path d="M6 14h1v1H6z"/><path d="M8 14h5v1H8z"/><path d="M15 14h1v1H15z"/><path d="M17 14h1v1H17z"/><path d="M20 14h3v1H20z"/><path d="M25 14h1v1H25z"/><path d="M28 14h1v1H28z"/><path d="M32 14h1v1H32z"/><path d="M4 15h1v1H4z"/><path d="M12 15h6v1H12z"/><path d="M20 15h3v1H20z"/><path d="M24 15h2v1H24z"/><path d="M28 15h2v1H28z"/><path d="M31 15h2v1H31z"/><path d="M5 16h6v1H5z"/><path d="M12 16h1v1H12z"/><path d="M14 16h1v1H14z"/><path d="M16 16h1v1H16z"/><path d="M18 16h1v1H18z"/><path d="M21 16h1v1H21z"/><path d="M23 16h2v1H23z"/><path d="M27 16h1v1H27z"/><path d="M29 16h1v1H29z"/><path d="M32 16h1v1H32z"/><path d="M4 17h2v1H4z"/><path d="M11 17h6v1H11z"/><path d="M19 17h1v1H19z"/><path d="M21 17h1v1H21z"/><path d="M26 17h1v1H26z"/><path d="M28 17h1v1H28z"/><path d="M30 17h3v1H30z"/><path d="M5 18h1v1H5z"/><path d="M9 18h2v1H9z"/><path d="M14 18h1v1H14z"/><path d="M16 18h1v1H16z"/><path d="M18 18h1v1H18z"/><path d="M20 18h1v1H20z"/><path d="M24 18h3v1H24z"/><path d="M28 18h1v1H28z"/><path d="M32 18h1v1H32z"/><path d="M6 19h4v1H6z"/><path d="M13 19h1v1H13z"/><path d="M15 19h1v1H15z"/><path d="M19 19h1v1H19z"/><path d="M21 19h3v1H21z"/><path d="M25 19h3v1H25z"/><path d="M29 19h1v1H29z"/><path d="M31 19h1v1H31z"/><path d="M5 20h1v1H5z"/><path d="M7 20h2v1H7z"/><path d="M10 20h1v1H10z"/><path d="M13 20h1v1H13z"/><path d="M20 20h1v1H20z"/><path d="M22 20h3v1H22z"/><path d="M31 20h2v1H31z"/><path d="M4 21h1v1H4z"/><path d="M15 21h3v1H15z"/><path d="M19 21h1v1H19z"/><path d="M22 21h2v1H22z"/><path d="M25 21h2v1H25z"/><path d="M28 21h3v1H28z"/><path d="M32 21h1v1H32z"/><path d="M8 22h1v1H8z"/><path d="M10 22h3v1H10z"/><path d="M16 22h2v1H16z"/><path d="M21 22h1v1H21z"/><path d="M29 22h1v1H29z"/><path d="M32 22h1v1H32z"/><path d="M7 23h1v1H7z"/><path d="M9 23h1v1H9z"/><path d="M11 23h1v1H11z"/><path d="M16 23h3v1H16z"/><path d="M20 23h1v1H20z"/><path d="M24 23h1v1H24z"/><path d="M29 23h1v1H29z"/><path d="M31 23h2v1H31z"/><path d="M4 24h3v1H4z"/><path d="M10 24h1v1H10z"/><path d="M13 24h1v1H13z"/><path d="M15 24h1v1H15z"/><path d="M18 24h1v1H18z"/><path d="M20 24h2v1H20z"/><path d="M23 24h7v1H23z"/><path d="M32 24h1v1H32z"/><path d="M12 25h1v1H12z"/><path d="M16 25h1v1H16z"/><path d="M18 25h1v1H18z"/><path d="M24 25h1v1H24z"/><path d="M28 25h1v1H28z"/><path d="M30 25h1v1H30z"/><path d="M32 25h1v1H32z"/><path d="M4 26h7v1H4z"/><path d="M12 26h2v1H12z"/><path d="M15 26h2v1H15z"/><path d="M22 26h3v1H22z"/><path d="M26 26h1v1H26z"/><path d="M28 26h1v1H28z"/><path d="M31 26h2v1H31z"/><path d="M4 27h1v1H4z"/><path d="M10 27h1v1H10z"/><path d="M12 27h1v1H12z"/><path d="M14 27h2v1H14z"/><path d="M17 27h1v1H17z"/><path d="M19 27h2v1H19z"/><path d="M22 27h3v1H22z"/><path d="M28 27h2v1H28z"/><path d="M31 27h1v1H31z"/><path d="M4 28h1v1H4z"/><path d="M6 28h3v1H6z"/><path d="M10 28h1v1H10z"/><path d="M12 28h2v1H12z"/><path d="M16 28h3v1H16z"/><path d="M20 28h2v1H20z"/><path d="M23 28h6v1H23z"/><path d="M31 28h2v1H31z"/><path d="M4 29h1v1H4z"/><path d="M6 29h3v1H6z"/><path d="M10 29h1v1H10z"/><path d="M13 29h5v1H13z"/><path d="M20 29h1v1H20z"/><path d="M27 29h1v1H27z"/><path d="M30 29h2v1H30z"/><path d="M4 30h1v1H4z"/><path d="M6 30h3v1H6z"/><path d="M10 30h1v1H10z"/><path d="M14 30h6v1H14z"/><path d="M21 30h5v1H21z"/><path d="M29 30h4v1H29z"/><path d="M4 31h1v1H4z"/><path d="M10 31h1v1H10z"/><path d="M14 31h2v1H14z"/><path d="M17 31h3v1H17z"/><path d="M21 31h2v1H21z"/><path d="M24 31h1v1H24z"/><path d="M26 31h2v1H26z"/><path d="M29 31h1v1H29z"/><path d="M31 31h2v1H31z"/><path d="M4 32h7v1H4z"/><path d="M13 32h5v1H13z"/><path d="M19 32h3v1H19z"/><path d="M24 32h3v1H24z"/><path d="M28 32h2v1H28z"/><path d="M31 32h1v1H31z"/></g></svg>